<svg width="32" height="32" viewBox="0 0 32 32" fill="none" xmlns="http://www.w3.org/2000/svg">
<path fill-rule="evenodd" clip-rule="evenodd" d="M16.0001 15C17.6569 15 19.0001 13.6569 19.0001 12C19.0001 10.3431 17.6569 9 16.0001 9C14.8679 9 13.8852 9.62798 13.3763 10.5451C13.1361 10.9779 13.0001 11.4761 13.0001 12C13.0001 13.6569 14.3432 15 16.0001 15ZM15.0001 12C15.0001 11.8274 15.0438 11.665 15.1207 11.5233L15.1251 11.5155C15.2956 11.2081 15.6236 11 16.0001 11C16.5523 11 17.0001 11.4477 17.0001 12C17.0001 12.5523 16.5523 13 16.0001 13C15.4478 13 15.0001 12.5523 15.0001 12Z" fill="#0C828F"/>
<path d="M28.0001 22C28.5523 22 29.0001 22.4477 29.0001 23V25H31.0001C31.5523 25 32.0001 25.4477 32.0001 26C32.0001 26.5523 31.5523 27 31.0001 27H29.0001V29C29.0001 29.5523 28.5523 30 28.0001 30C27.4478 30 27.0001 29.5523 27.0001 29V27H25.0001C24.4478 27 24.0001 26.5523 24.0001 26C24.0001 25.4477 24.4478 25 25.0001 25H27.0001V23C27.0001 22.4477 27.4478 22 28.0001 22Z" fill="#0C828F"/>
<path fill-rule="evenodd" clip-rule="evenodd" d="M3.00005 6C3.00005 5.44772 3.44777 5 4.00005 5H28.0001C28.5523 5 29.0001 5.44772 29.0001 6V19C29.0001 19.5523 28.5523 20 28.0001 20C27.4478 20 27.0001 19.5523 27.0001 19V7H5.00005V25H21.0001C21.5523 25 22.0001 25.4477 22.0001 26C22.0001 26.5523 21.5523 27 21.0001 27H4.00005C3.44777 27 3.00005 26.5523 3.00005 26V6Z" fill="#0C828F"/>
<path fill-rule="evenodd" clip-rule="evenodd" d="M3.21917 19.6247C2.87416 19.1934 2.94408 18.5641 3.37534 18.2191L8.37534 14.2191C8.76033 13.9111 9.31233 13.9297 9.67576 14.2628L21.6758 25.2628C22.0829 25.636 22.1104 26.2686 21.7372 26.6757C21.364 27.0828 20.7314 27.1103 20.3243 26.7372L8.9558 16.316L4.62473 19.7809C4.19347 20.1259 3.56418 20.0559 3.21917 19.6247Z" fill="#0C828F"/>
<path fill-rule="evenodd" clip-rule="evenodd" d="M18.2475 19.1585C17.8838 18.7429 17.9259 18.1111 18.3415 17.7474L22.3415 14.2474C22.706 13.9285 23.2466 13.9166 23.6248 14.2191L28.6248 18.2191C29.056 18.5641 29.1259 19.1934 28.7809 19.6247C28.4359 20.056 27.8066 20.1259 27.3754 19.7809L23.0288 16.3036L19.6586 19.2526C19.2429 19.6163 18.6112 19.5741 18.2475 19.1585Z" fill="#0C828F"/>
</svg>
