<svg width="26" height="25" viewBox="0 0 26 25" fill="none" xmlns="http://www.w3.org/2000/svg">
<g clip-path="url(#clip0)">
<path fill-rule="evenodd" clip-rule="evenodd" d="M13.25 11.7188C14.5445 11.7188 15.5938 10.6694 15.5938 9.375C15.5938 8.08058 14.5445 7.03125 13.25 7.03125C12.3655 7.03125 11.5978 7.52186 11.2002 8.23835C11.0126 8.5765 10.9063 8.96569 10.9063 9.375C10.9063 10.6694 11.9556 11.7188 13.25 11.7188ZM12.4688 9.375C12.4688 9.24016 12.5029 9.11331 12.5631 9.00261L12.5664 8.99648C12.6997 8.75631 12.9559 8.59375 13.25 8.59375C13.6815 8.59375 14.0313 8.94353 14.0313 9.375C14.0313 9.80647 13.6815 10.1562 13.25 10.1562C12.8186 10.1562 12.4688 9.80647 12.4688 9.375Z" fill="white"/>
<path d="M22.625 17.1875C23.0565 17.1875 23.4063 17.5373 23.4063 17.9688V19.5312H24.9688C25.4003 19.5312 25.75 19.881 25.75 20.3125C25.75 20.744 25.4003 21.0938 24.9688 21.0938H23.4063V22.6562C23.4063 23.0877 23.0565 23.4375 22.625 23.4375C22.1936 23.4375 21.8438 23.0877 21.8438 22.6562V21.0938H20.2813C19.8498 21.0938 19.5 20.744 19.5 20.3125C19.5 19.881 19.8498 19.5312 20.2813 19.5312H21.8438V17.9688C21.8438 17.5373 22.1936 17.1875 22.625 17.1875Z" fill="white"/>
<path fill-rule="evenodd" clip-rule="evenodd" d="M3.09379 4.6875C3.09379 4.25603 3.44357 3.90625 3.87504 3.90625H22.625C23.0565 3.90625 23.4063 4.25603 23.4063 4.6875V14.8438C23.4063 15.2752 23.0565 15.625 22.625 15.625C22.1936 15.625 21.8438 15.2752 21.8438 14.8438V5.46875H4.65629V19.5312H17.1563C17.5878 19.5312 17.9375 19.881 17.9375 20.3125C17.9375 20.744 17.5878 21.0938 17.1563 21.0938H3.87504C3.44357 21.0938 3.09379 20.744 3.09379 20.3125V4.6875Z" fill="white"/>
<path fill-rule="evenodd" clip-rule="evenodd" d="M3.26497 15.3318C2.99544 14.9949 3.05006 14.5032 3.38699 14.2337L7.29324 11.1087C7.594 10.8681 8.02526 10.8826 8.30919 11.1428L17.6842 19.7366C18.0023 20.0282 18.0237 20.5223 17.7322 20.8404C17.4406 21.1585 16.9464 21.18 16.6284 20.8884L7.74672 12.7469L4.36307 15.4538C4.02615 15.7233 3.53451 15.6687 3.26497 15.3318Z" fill="white"/>
<path fill-rule="evenodd" clip-rule="evenodd" d="M15.0058 14.9676C14.7217 14.6429 14.7546 14.1493 15.0793 13.8652L18.2043 11.1308C18.4891 10.8817 18.9114 10.8723 19.2068 11.1087L23.1131 14.2337C23.45 14.5032 23.5046 14.9949 23.2351 15.3318C22.9656 15.6687 22.4739 15.7233 22.137 15.4538L18.7412 12.7372L16.1082 15.0411C15.7835 15.3252 15.29 15.2923 15.0058 14.9676Z" fill="white"/>
</g>
<defs>
<clipPath id="clip0">
<rect width="25" height="25" fill="white" transform="translate(0.75)"/>
</clipPath>
</defs>
</svg>
