<svg width="12" height="18" viewBox="0 0 12 18" fill="none" xmlns="http://www.w3.org/2000/svg">
<path fill-rule="evenodd" clip-rule="evenodd" d="M0 0.375C0 0.167893 0.167893 0 0.375 0H11.625C11.8321 0 12 0.167893 12 0.375V17.5449C12 17.752 11.8321 17.9199 11.625 17.9199H11.4545C11.3787 17.9199 11.3046 17.8969 11.2421 17.8539L6 14.25L0.757903 17.8539C0.695391 17.8969 0.621315 17.9199 0.545455 17.9199H0.375C0.167893 17.9199 0 17.752 0 17.5449V0.375ZM6.27157 4.57858C6.1636 4.34854 5.8364 4.34854 5.72843 4.57858L5.03432 6.05737L3.45214 6.29911C3.21076 6.33599 3.1122 6.6304 3.28272 6.80517L4.4375 7.98873L4.1681 9.64027C4.12779 9.88743 4.39016 10.0723 4.60933 9.95112L6 9.18237L7.39067 9.95112C7.60984 10.0723 7.87221 9.88743 7.8319 9.64027L7.5625 7.98873L8.71728 6.80517C8.8878 6.6304 8.78924 6.33599 8.54786 6.29911L6.96568 6.05737L6.27157 4.57858Z" fill="#07838B"/>
</svg>
