<svg width="32" height="32" viewBox="0 0 32 32" fill="none" xmlns="http://www.w3.org/2000/svg">
<path d="M28.851 6.45942L28.7563 6.33532C28.6616 6.21123 28.5686 6.09039 28.4706 5.96793L28.3874 5.86996C27.9435 5.32622 27.4647 4.81188 26.9542 4.33017L26.8105 4.19954L26.7077 4.10647L26.6097 4.0183L26.5053 3.92359L26.4188 3.85338C25.7582 3.28574 25.0529 2.77244 24.3097 2.31849L24.1285 2.21072C23.9963 2.13234 23.8559 2.04744 23.7123 1.97232L23.6486 1.93803C23.0058 1.58786 22.3399 1.28181 21.6555 1.022L21.396 0.927295C21.2441 0.871778 21.0858 0.817894 20.9062 0.764009L20.8442 0.746048C17.6959 -0.24589 14.3192 -0.248739 11.1692 0.737884L11.0794 0.767275C10.9161 0.821159 10.7529 0.876677 10.5897 0.930561L10.3432 1.02363C9.67072 1.27905 9.01628 1.57963 8.38435 1.92334L8.28151 1.97886C8.13786 2.05723 7.99747 2.14214 7.86525 2.21562L7.71834 2.30706C6.97069 2.7599 6.261 3.27267 5.59626 3.84031L5.48689 3.93665L5.36936 4.04116L5.01187 4.36773C4.51917 4.83458 4.0563 5.33195 3.62599 5.8569L3.52315 5.98589C3.42684 6.10672 3.33053 6.22755 3.23585 6.35328L3.18688 6.42186C1.12249 9.18274 0.00472109 12.5367 1.49219e-05 15.9844C-0.00469124 19.4322 1.10391 22.7892 3.16076 25.5557L3.23749 25.6569C3.33216 25.781 3.42521 25.9019 3.52478 26.0243L3.61783 26.1337C4.05428 26.6671 4.52427 27.1722 5.02493 27.6458L5.37426 27.9625L5.49505 28.0703L5.57014 28.1307C6.23893 28.7067 6.95355 29.2271 7.70691 29.6868L7.87015 29.7848C8.00727 29.8664 8.14439 29.9481 8.2864 30.0216L8.37292 30.0657C9.01795 30.4176 9.68666 30.7242 10.3742 30.9833L10.6044 31.0666C10.7676 31.1286 10.9308 31.1825 11.0941 31.2299L11.1561 31.2462C14.3034 32.2479 17.6834 32.2513 20.8328 31.256L20.9242 31.2266C21.0776 31.1776 21.236 31.1237 21.4139 31.0633L21.6147 30.9866C22.3064 30.7272 22.9794 30.4206 23.629 30.0689L23.727 30.015C23.8674 29.9377 24.0061 29.8583 24.1432 29.7766L24.2804 29.6917C25.0282 29.2368 25.7379 28.7218 26.4024 28.1519L26.5118 28.0572L26.6163 27.9625L26.9917 27.618C27.4832 27.1527 27.945 26.657 28.3743 26.1337L28.4755 26.008C28.5718 25.8872 28.6682 25.7663 28.7628 25.6422L28.8216 25.559C30.8798 22.8013 31.9944 19.4533 32 16.0119C32.0056 12.5704 30.9019 9.21888 28.8526 6.45452L28.851 6.45942ZM26.1559 16.2566C26.2273 16.1844 26.2674 16.087 26.2674 15.9855C26.2674 15.884 26.2273 15.7866 26.1559 15.7145L22.8651 12.4194L28.2862 6.99336C30.1977 9.60133 31.2282 12.7509 31.2282 15.9847C31.2282 19.2185 30.1977 22.3681 28.2862 24.976L22.8618 19.55L26.1559 16.2566ZM4.18589 6.38757C4.5042 6.00875 5.00208 5.50093 5.32855 5.16293C5.44118 5.047 5.52443 4.96372 5.5832 4.90004L11.1169 10.4387L9.67228 11.8838L4.18589 6.38757ZM6.14473 4.37752C6.80623 3.81693 7.51393 3.31331 8.26028 2.87203L13.4692 8.08248L11.6605 9.89169L6.14473 4.37752ZM16.5331 6.09366L21.0254 1.60656C21.7181 1.8487 22.3924 2.14066 23.043 2.48014L17.9827 7.54201L16.5331 6.09366ZM21.773 19.5517L20.3284 20.9968L18.8821 19.55L20.3268 18.1033L21.773 19.5517ZM19.793 21.5421L17.9859 23.3497L16.5397 21.903L18.3467 20.0971L19.793 21.5421ZM17.444 23.8918L15.9977 25.3353L14.5514 23.8885L15.9977 22.4418L17.444 23.8918ZM13.1084 19.5533L11.6621 21L10.2159 19.5549L11.6621 18.1066L13.1084 19.5533ZM9.8143 15.7128C9.77852 15.7485 9.75012 15.7908 9.73075 15.8375C9.71138 15.8842 9.7014 15.9342 9.7014 15.9847C9.7014 16.0352 9.71138 16.0852 9.73075 16.1319C9.75012 16.1786 9.77852 16.2209 9.8143 16.2566L11.1202 17.5629L9.67392 19.0112L6.6524 15.9904L9.67392 12.9664L11.1186 14.4131L9.8143 15.7128ZM18.8903 12.421L20.3349 10.9759L21.7796 12.421L20.3349 13.8677L18.8903 12.421ZM21.3682 15.9904L20.3333 17.0256L19.3 15.9904L20.3349 14.9552L21.3682 15.9904ZM12.6954 15.9904L11.6621 17.0224L10.6272 15.9904L11.6605 14.9568L12.6954 15.9904ZM14.5123 15.7194C14.4405 15.7913 14.4002 15.8888 14.4002 15.9904C14.4002 16.092 14.4405 16.1895 14.5123 16.2615L15.4558 17.2053L13.6504 19.0112L12.2041 17.5645L13.51 16.2582C13.5818 16.1863 13.6221 16.0888 13.6221 15.9871C13.6221 15.8855 13.5818 15.788 13.51 15.7161L12.2041 14.4098L13.6504 12.9647L15.459 14.7739L14.5123 15.7194ZM16.6702 15.9904L15.9977 16.6599L15.3252 15.9904L15.9977 15.3177L16.6702 15.9904ZM14.1907 12.4243L15.9977 10.6118L17.8064 12.421L15.9977 14.2302L14.1907 12.4243ZM17.4848 16.2615C17.5205 16.226 17.5489 16.1837 17.5682 16.1372C17.5876 16.0907 17.5976 16.0408 17.5976 15.9904C17.5976 15.94 17.5876 15.8901 17.5682 15.8436C17.5489 15.7971 17.5205 15.7549 17.4848 15.7194L16.5413 14.7756L18.35 12.9664L19.7946 14.4114L18.4887 15.7177C18.4529 15.7534 18.4245 15.7957 18.4052 15.8424C18.3858 15.8891 18.3758 15.9391 18.3758 15.9896C18.3758 16.0401 18.3858 16.0901 18.4052 16.1368C18.4245 16.1834 18.4529 16.2258 18.4887 16.2615L19.7946 17.5678L18.35 19.0145L16.5429 17.2085L17.4848 16.2615ZM17.8113 19.5533L15.9977 21.3576L14.1923 19.55L15.9977 17.7441L17.8113 19.5533ZM16.5478 10.0713L17.9925 8.62622L19.793 10.4387L18.3483 11.8838L16.5478 10.0713ZM10.2224 12.4226L11.6687 10.9775L13.1133 12.4226L11.6605 13.8677L10.2224 12.4226ZM15.4639 21.903L14.0176 23.3497L12.2041 21.5421L13.6504 20.0954L15.4639 21.903ZM22.1893 16.2598C22.2251 16.2242 22.2535 16.1818 22.2728 16.1352C22.2922 16.0885 22.3022 16.0385 22.3022 15.988C22.3022 15.9374 22.2922 15.8874 22.2728 15.8408C22.2535 15.7941 22.2251 15.7517 22.1893 15.7161L20.8834 14.4098L22.328 12.9631L25.343 15.9904L22.3199 19.0145L20.8736 17.5661L22.1893 16.2598ZM14.5531 8.08248L15.9977 6.63577L17.4424 8.08248L15.9977 9.52756L14.5531 8.08248ZM12.2025 10.4387L14.0111 8.62949L15.4558 10.0746L13.6471 11.8789L12.2025 10.4387ZM20.8769 10.4387L26.4269 4.88698C26.9231 5.35477 27.3877 5.85497 27.8177 6.38431L22.3297 11.8772L20.8769 10.4387ZM18.5263 8.08738L23.7351 2.87203C24.4795 3.3132 25.1851 3.81685 25.8442 4.37752L20.3349 9.89169L18.5263 8.08738ZM11.7895 1.34204C14.5399 0.55999 17.4539 0.55999 20.2043 1.34204L15.9977 5.55155L11.7895 1.34204ZM8.95731 2.48504L10.9716 1.60983L15.4558 6.09529L14.0111 7.54201L8.95731 2.48504ZM5.83948 15.7112C5.80375 15.7467 5.77539 15.7889 5.75604 15.8355C5.73669 15.882 5.72672 15.9319 5.72672 15.9822C5.72672 16.0326 5.73669 16.0825 5.75604 16.129C5.77539 16.1756 5.80375 16.2178 5.83948 16.2533L9.13197 19.5484L3.70924 24.9711C1.79777 22.3632 0.767202 19.2136 0.767202 15.9798C0.767202 12.746 1.79777 9.59643 3.70924 6.98847L9.13034 12.4128L5.83948 15.7112ZM11.1186 21.5421L5.56851 27.0939C5.07248 26.6259 4.60788 26.1257 4.17773 25.5965L9.66739 20.1036L11.1186 21.5421ZM13.4675 23.8918L8.25702 29.1023C7.5127 28.661 6.80716 28.1574 6.148 27.5968L11.6605 22.0842L13.4675 23.8918ZM15.4558 25.8823L10.9684 30.3596C10.2757 30.1174 9.60137 29.8255 8.95078 29.486L14.0111 24.4241L15.4558 25.8823ZM20.2076 30.6355C17.4555 31.4182 14.5399 31.4182 11.7878 30.6355L15.9977 26.4211L20.2076 30.6355ZM23.0446 29.4925C22.3938 29.8296 21.7195 30.1194 21.027 30.3596L16.5397 25.8708L17.9859 24.4241L23.0446 29.4925ZM25.8474 27.5951C25.1882 28.1561 24.4826 28.6603 23.7384 29.1023L18.5279 23.8902L20.3349 22.0826L25.8474 27.5951ZM27.8063 25.5867C27.3763 26.116 26.9117 26.6162 26.4155 27.0841L20.8654 21.5323L22.3085 20.0873L27.8063 25.5867Z" fill="white"/>
</svg>
