<svg width="32" height="32" viewBox="0 0 32 32" fill="none" xmlns="http://www.w3.org/2000/svg">
<path d="M28.8 16C28.8 23.0709 23.071 28.7999 16 28.7999C14.6787 28.7999 13.409 28.5987 12.2116 28.227C12.7329 27.3754 13.5123 25.9819 13.8013 24.8722C13.9561 24.2735 14.5961 21.827 14.5961 21.827C15.0142 22.6219 16.2323 23.298 17.5278 23.298C21.3884 23.298 24.1703 19.747 24.1703 15.3341C24.1703 11.107 20.7174 7.94318 16.2787 7.94318C10.7561 7.94318 7.81937 11.649 7.81937 15.6903C7.81937 17.569 8.82066 19.907 10.4155 20.6503C10.6581 20.7638 10.7871 20.7122 10.8439 20.4799C10.8852 20.3045 11.1019 19.4322 11.2 19.0296C11.231 18.9006 11.2155 18.787 11.1123 18.6632C10.591 18.018 10.1678 16.8412 10.1678 15.7419C10.1678 12.9187 12.3045 10.1883 15.9484 10.1883C19.0916 10.1883 21.2955 12.3303 21.2955 15.3961C21.2955 18.8593 19.5458 21.2593 17.2697 21.2593C16.0155 21.2593 15.071 20.2219 15.3755 18.947C15.7368 17.4245 16.4336 15.7832 16.4336 14.6838C16.4336 13.7032 15.9071 12.8825 14.8129 12.8825C13.5278 12.8825 12.4955 14.209 12.4955 15.9896C12.4955 17.1251 12.8774 17.889 12.8774 17.889C12.8774 17.889 11.6129 23.2464 11.3807 24.2477C11.1226 25.3522 11.2258 26.9109 11.3342 27.9225C6.5755 26.0593 3.20001 21.4245 3.20001 16C3.20001 8.92898 8.92904 3.19995 16 3.19995C23.071 3.19995 28.8 8.92898 28.8 16Z" fill="#2F3237"/>
</svg>
