<svg width="32" height="32" viewBox="0 0 32 32" fill="none" xmlns="http://www.w3.org/2000/svg">
<path d="M16.0029 9.42978C12.3706 9.42978 9.44081 12.3571 9.44081 15.9863C9.44081 19.6155 12.3706 22.5428 16.0029 22.5428C19.6351 22.5428 22.5649 19.6155 22.5649 15.9863C22.5649 12.3571 19.6351 9.42978 16.0029 9.42978ZM16.0029 20.2489C13.6556 20.2489 11.7367 18.3373 11.7367 15.9863C11.7367 13.6353 13.6499 11.7237 16.0029 11.7237C18.3558 11.7237 20.2691 13.6353 20.2691 15.9863C20.2691 18.3373 18.3501 20.2489 16.0029 20.2489ZM24.3639 9.16158C24.3639 10.0118 23.6786 10.6909 22.8333 10.6909C21.9824 10.6909 21.3028 10.0061 21.3028 9.16158C21.3028 8.31705 21.9881 7.6323 22.8333 7.6323C23.6786 7.6323 24.3639 8.31705 24.3639 9.16158ZM28.7101 10.7137C28.613 8.66514 28.1447 6.85054 26.6426 5.3555C25.1463 3.86045 23.3302 3.39254 21.2799 3.28983C19.1668 3.16999 12.8332 3.16999 10.7201 3.28983C8.67553 3.38683 6.8594 3.85475 5.35738 5.34979C3.85536 6.84483 3.39276 8.65943 3.28996 10.708C3.17003 12.8193 3.17003 19.1476 3.28996 21.2589C3.38705 23.3074 3.85536 25.122 5.35738 26.6171C6.8594 28.1121 8.66982 28.58 10.7201 28.6828C12.8332 28.8026 19.1668 28.8026 21.2799 28.6828C23.3302 28.5857 25.1463 28.1178 26.6426 26.6171C28.139 25.122 28.6073 23.3074 28.7101 21.2589C28.83 19.1476 28.83 12.825 28.7101 10.7137ZM25.9802 23.5243C25.5347 24.6427 24.6723 25.5044 23.5472 25.9552C21.8625 26.6228 17.8647 26.4687 16.0029 26.4687C14.141 26.4687 10.1376 26.6171 8.45851 25.9552C7.33913 25.5101 6.47676 24.6484 6.02558 23.5243C5.35738 21.8409 5.51158 17.8465 5.51158 15.9863C5.51158 14.126 5.36309 10.1259 6.02558 8.4483C6.47104 7.32987 7.33342 6.46822 8.45851 6.01742C10.1433 5.34979 14.141 5.50386 16.0029 5.50386C17.8647 5.50386 21.8682 5.3555 23.5472 6.01742C24.6666 6.46251 25.529 7.32416 25.9802 8.4483C26.6484 10.1316 26.4942 14.126 26.4942 15.9863C26.4942 17.8465 26.6484 21.8466 25.9802 23.5243Z" fill="#2F3237"/>
</svg>
