<svg width="32" height="32" viewBox="0 0 32 32" fill="none" xmlns="http://www.w3.org/2000/svg">
<path d="M26.3449 10.7818C26.3612 11.0092 26.3612 11.2367 26.3612 11.4641C26.3612 18.4001 21.082 26.392 11.4332 26.392C8.46061 26.392 5.6992 25.5311 3.37634 24.0367C3.79869 24.0854 4.20475 24.1017 4.64335 24.1017C7.09611 24.1017 9.35402 23.2733 11.1571 21.8601C8.85046 21.8113 6.91746 20.3007 6.25145 18.2214C6.57636 18.2701 6.90121 18.3026 7.24236 18.3026C7.71341 18.3026 8.18451 18.2376 8.62306 18.124C6.219 17.6366 4.4159 15.525 4.4159 12.9747V12.9098C5.11435 13.2996 5.9266 13.5433 6.78746 13.5757C5.37425 12.6336 4.4484 11.0255 4.4484 9.20616C4.4484 8.23156 4.70825 7.33815 5.1631 6.55845C7.74586 9.74221 11.6281 11.8214 15.9814 12.0488C15.9002 11.659 15.8514 11.2529 15.8514 10.8468C15.8514 7.95541 18.1906 5.6001 21.0982 5.6001C22.6088 5.6001 23.9733 6.2336 24.9317 7.25695C26.1174 7.02955 27.2545 6.59095 28.2616 5.98995C27.8717 7.20825 27.0433 8.23161 25.955 8.88131C27.0109 8.76766 28.0342 8.47521 28.9763 8.06916C28.2617 9.10871 27.3683 10.0346 26.3449 10.7818Z" fill="#2F3237"/>
</svg>
