<svg width="24" height="24" viewBox="0 0 24 24" fill="none" xmlns="http://www.w3.org/2000/svg">
<path d="M17.1265 17.1265C14.2952 19.9578 9.70478 19.9578 6.87348 17.1265C4.04217 14.2952 4.04217 9.70478 6.87348 6.87348C9.70478 4.04217 14.2952 4.04217 17.1265 6.87348C19.9578 9.70478 19.9578 14.2952 17.1265 17.1265Z" stroke="#737679" stroke-width="1.5"/>
<path fill-rule="evenodd" clip-rule="evenodd" d="M17 12C17 11.5858 16.6642 11.25 16.25 11.25L12.75 11.25L12.75 7.75C12.75 7.33579 12.4142 7 12 7C11.5858 7 11.25 7.33579 11.25 7.75L11.25 11.25L7.75 11.25C7.33579 11.25 7 11.5858 7 12C7 12.4142 7.33579 12.75 7.75 12.75L11.25 12.75L11.25 16.25C11.25 16.6642 11.5858 17 12 17C12.4142 17 12.75 16.6642 12.75 16.25L12.75 12.75L16.25 12.75C16.6642 12.75 17 12.4142 17 12Z" fill="#737679"/>
</svg>
