<svg width="164" height="40" viewBox="0 0 164 40" fill="none" xmlns="http://www.w3.org/2000/svg">
<g clip-path="url(#clip0)">
<path d="M101.52 25.3799C103.623 25.3799 105.043 23.9166 105.423 21.3633L105.45 21.2366H106.597L106.577 21.3999C106.147 24.7266 104.283 26.5599 101.283 26.5599C100.497 26.5727 99.7175 26.4182 98.9957 26.1067C98.2739 25.7953 97.6266 25.3339 97.0966 24.7533C95.9999 23.5566 95.4299 21.9033 95.4299 19.9766C95.4299 16.2133 97.9799 13.3733 101.363 13.3733C102.019 13.3471 102.674 13.4572 103.285 13.6964C103.897 13.9356 104.452 14.2989 104.917 14.7633L105.277 13.3733H106.277V17.3166H105.38L105.35 17.2166C104.787 15.9999 103.627 14.5299 101.327 14.5299C98.9533 14.5299 97.4199 16.6266 97.4199 19.8633C97.4199 23.2666 98.9899 25.3799 101.52 25.3799Z" fill="white"/>
<path d="M56.54 19.1466L56.4134 19.1133C54.4134 18.5833 53.4934 18.16 53.4934 16.5733C53.4934 15.24 54.3 14.47 55.6534 14.47C55.68 14.47 58.4734 14.4966 59.28 16.8033L59.3134 16.9H60.1867V13.3733H59.28L58.9267 14.6666C58.5071 14.2538 58.0104 13.9276 57.4647 13.7069C56.9191 13.4861 56.3353 13.375 55.7467 13.38C53.4134 13.38 51.77 14.8633 51.77 16.9833C51.77 19.36 53.77 20.06 55.9767 20.62C58.1834 21.18 59.1434 21.5966 59.1434 23.2533C59.1434 24.7033 57.9734 25.3633 56.8867 25.3633C56.0371 25.3969 55.194 25.203 54.4444 24.8015C53.6949 24.4001 53.0662 23.8058 52.6234 23.08L52.5934 23.01H51.7267V26.5566H52.6334L53.03 25C53.5177 25.5016 54.1028 25.8981 54.7495 26.1653C55.3961 26.4324 56.0905 26.5644 56.79 26.5533C59.15 26.5533 60.8634 24.9433 60.8634 22.7233C60.8634 20.3033 58.86 19.7666 56.54 19.1466Z" fill="white"/>
<path d="M62.6901 16.1133H63.5501L63.5867 15.8466C63.8661 14.4198 63.9198 14.4199 64.94 14.4233L64.9467 14.4233H67.2367V25.5133H66.0001V26.5633H70.3001V25.5133H69.1134V14.4233H71.3334C72.3901 14.4233 72.4801 14.4233 72.7534 15.84L72.7934 16.1133H73.6667V13.3733H62.6901V16.1133Z" fill="white"/>
<path d="M83.9233 16.1133H83.0634V13.3733H94.03V16.1133H93.17L93.1333 15.84C92.86 14.4233 92.7733 14.4233 91.7133 14.4233H89.4867V25.5133H90.7033V26.5633H86.3933V25.5133H87.61V14.4233H85.32C84.2934 14.4166 84.24 14.4166 83.96 15.8466L83.9233 16.1133Z" fill="white"/>
<path d="M76.2067 14.4233H77.4233V25.51H76.2067V26.5633H80.5167V25.51H79.3V14.4233H80.5167V13.3733H76.2067V14.4233Z" fill="white"/>
<path d="M118.653 14.4233H117.413V13.3733H121.723V14.4233H120.527V25.51H121.723V26.5633H117.413V25.51H118.653V20.87H112.52V25.51H113.757V26.5633H109.447V25.51H110.643V14.4233H109.36V13.3733H113.67V14.4233H112.52V19.8066H118.653V14.4233Z" fill="white"/>
<path d="M144.22 14.4233H145.44V25.51H144.22V26.5633H148.53V25.51H147.313V14.4233H148.53V13.3733H144.22V14.4233Z" fill="white"/>
<path d="M163.14 13.3733V14.4233H161.427L157.853 19.63L161.743 25.51H162.907V26.5633H158.597V25.51H159.677L156.82 21.1833L153.94 25.51H155.3V26.5633H150.99V25.51H152.343L156.053 20.01L152.29 14.4233H151.067V13.3733H155.377V14.4233H154.363L157.057 18.4466L159.84 14.4233H158.833V13.3733H163.14Z" fill="white"/>
<path d="M131.81 14.4233H133.113V25.51H131.81V26.56H136.127V25.51H135V20.87H137C137.75 20.87 137.787 20.9666 138.063 21.7166L138.093 21.8V21.9133H138.957V18.62H138.097L138.08 18.73L138.003 18.93C137.77 19.5533 137.67 19.81 136.983 19.81H134.983V14.4233H139.49C140.36 14.4233 140.547 14.6866 141.023 15.91V16.02H142.023V13.3733H131.81V14.4233Z" fill="white"/>
<path d="M35.76 8.18669L35.6434 8.03336C35.5267 7.88003 35.41 7.73003 35.29 7.58003L35.1867 7.45669C34.6374 6.78452 34.0451 6.14874 33.4134 5.55336V5.55336L33.2367 5.39336L33.11 5.27669L33 5.16669L32.87 5.05003L32.7634 4.96336C31.947 4.26195 31.0753 3.62766 30.1567 3.06669V3.06669L29.9334 2.93336C29.77 2.83669 29.6 2.73669 29.42 2.64003L29.34 2.60003C28.5456 2.16684 27.7226 1.78819 26.8767 1.46669V1.46669L26.5434 1.35003C26.3567 1.28336 26.16 1.21669 25.94 1.14336L25.8634 1.12003C21.9715 -0.102183 17.7986 -0.102183 13.9067 1.12003V1.12003L13.7967 1.15669C13.5867 1.22336 13.3867 1.29336 13.1934 1.36003L12.89 1.47336C12.0559 1.78803 11.244 2.15888 10.46 2.58336V2.58336L10.3334 2.65336C10.1567 2.75003 9.98337 2.85003 9.82003 2.94669L9.6367 3.06003C8.71596 3.61963 7.84199 4.2528 7.02337 4.95336V4.95336L6.89003 5.07003L6.74337 5.20003L6.30003 5.58336C5.6909 6.16015 5.11866 6.7747 4.5867 7.42336V7.42336L4.46003 7.58336C4.34003 7.73336 4.22337 7.88336 4.1067 8.03669L4.0467 8.12003C1.49511 11.531 0.113448 15.6748 0.107442 19.9345C0.101435 24.1942 1.47141 28.3419 4.01337 31.76V31.76L4.1067 31.8867C4.22337 32.04 4.34003 32.19 4.46003 32.34L4.57337 32.4734C5.11229 33.1295 5.69235 33.7508 6.31003 34.3334V34.3334L6.74003 34.7234L6.89003 34.8567L6.98337 34.93C7.80962 35.6418 8.69255 36.2851 9.62337 36.8534V36.8534L9.8267 36.9734C9.9967 37.0734 10.16 37.17 10.34 37.2667L10.4467 37.32C11.2439 37.7546 12.0703 38.1333 12.92 38.4534L13.2034 38.5567C13.4134 38.6334 13.61 38.7 13.8067 38.7634L13.8834 38.7834C17.7746 40.0173 21.9522 40.0173 25.8434 38.7834V38.7834L25.9567 38.7467C26.1467 38.6867 26.3434 38.62 26.56 38.5434L26.8067 38.45C27.6617 38.1298 28.4937 37.7511 29.2967 37.3167V37.3167L29.4167 37.25C29.59 37.1545 29.7611 37.0567 29.93 36.9567L30.1 36.85C31.0258 36.2879 31.9042 35.6513 32.7267 34.9467V34.9467L32.86 34.83L32.99 34.7134L33.4534 34.2867C34.0601 33.7119 34.6301 33.0996 35.16 32.4534V32.4534L35.2834 32.2967C35.4034 32.1467 35.52 31.9967 35.6367 31.8434L35.71 31.74C38.2519 28.3335 39.6285 24.1986 39.6357 19.9483C39.6429 15.698 38.2803 11.5585 35.75 8.14336L35.76 8.18669ZM32.4267 20.2934C32.5138 20.2043 32.5626 20.0846 32.5626 19.96C32.5626 19.8354 32.5138 19.7158 32.4267 19.6267L28.36 15.5567L35.06 8.85336C37.4231 12.0756 38.6972 15.9675 38.6972 19.9634C38.6972 23.9593 37.4231 27.8511 35.06 31.0734L28.3567 24.37L32.4267 20.2934ZM5.27337 8.09669C5.6667 7.63003 6.27337 7.00336 6.69337 6.58336L7.0067 6.25003L13.84 13.0867L12.0534 14.87L5.27337 8.09669ZM7.70337 5.61336C8.51837 4.92111 9.39035 4.2989 10.31 3.75336L16.7467 10.1934L14.5134 12.43L7.70337 5.61336ZM20.5434 7.73336L26.0867 2.19003C26.9428 2.48943 27.7761 2.85037 28.58 3.27003L22.3334 9.52336L20.5434 7.73336ZM27.02 24.3634L25.2334 26.15L23.4467 24.3634L25.2334 22.5767L27.02 24.3634ZM24.5667 26.82L22.3334 29.0534L20.5467 27.2634L22.78 25.03L24.5667 26.82ZM21.6667 29.7234L19.88 31.51L18.0934 29.7234L19.88 27.9367L21.6667 29.7234ZM16.3 24.3634L14.5134 26.15L12.7267 24.3634L14.5134 22.5734L16.3 24.3634ZM12.23 19.62C12.1421 19.7087 12.0928 19.8285 12.0928 19.9534C12.0928 20.0782 12.1421 20.198 12.23 20.2867L13.8434 21.9L12.0567 23.69L8.33337 19.9567L12.0667 16.22L13.8434 18L12.23 19.62ZM23.4467 15.5534L25.2334 13.7667L27.02 15.55L25.2334 17.3334L23.4467 15.5534ZM26.5067 19.9567L25.2267 21.2367L23.95 19.96L25.2334 18.6667L26.5067 19.9567ZM15.79 19.9567L14.5134 21.2334L13.2334 19.9534L14.5134 18.6667L15.79 19.9567ZM18.0367 19.6234C17.9488 19.712 17.8994 19.8318 17.8994 19.9567C17.8994 20.0816 17.9488 20.2014 18.0367 20.29L19.2034 21.4567L16.97 23.69L15.1834 21.9L16.7967 20.29C16.8846 20.2014 16.934 20.0816 16.934 19.9567C16.934 19.8318 16.8846 19.712 16.7967 19.6234L15.1834 18L16.97 16.2134L19.2034 18.45L18.0367 19.6234ZM20.7034 19.9567L19.8734 20.7867L19.0434 19.9567L19.8734 19.1234L20.7034 19.9567ZM17.6367 15.55L19.8734 13.3334L22.11 15.57L19.8734 17.8067L17.6367 15.55ZM21.71 20.2967C21.798 20.208 21.8473 20.0882 21.8473 19.9634C21.8473 19.8385 21.798 19.7187 21.71 19.63L20.5434 18.4634L22.78 16.2267L24.5634 18L22.95 19.6134C22.8621 19.702 22.8128 19.8218 22.8128 19.9467C22.8128 20.0716 22.8621 20.1914 22.95 20.28L24.5634 21.89L22.7767 23.6767L20.5434 21.4467L21.71 20.2967ZM22.1067 24.3634L19.8734 26.5967L17.64 24.3634L19.8734 22.13L22.1067 24.3634ZM20.5434 12.6467L22.3334 10.8634L24.5667 13.1L22.78 14.8867L20.5434 12.6467ZM12.7267 15.5534L14.5134 13.77L16.3 15.5567L14.5134 17.3334L12.7267 15.5534ZM19.2034 27.2667L17.4167 29.0567L15.1834 26.8234L16.97 25.0367L19.2034 27.2667ZM27.5134 20.2934C27.6013 20.2047 27.6506 20.0849 27.6506 19.96C27.6506 19.8352 27.6013 19.7153 27.5134 19.6267L25.9034 18L27.69 16.2134L31.4234 19.95L27.6867 23.6867L25.9 21.8967L27.5134 20.2934ZM18.0867 10.1934L19.8734 8.40669L21.6667 10.1934L19.88 11.98L18.0867 10.1934ZM15.1834 13.1L17.42 10.8634L19.2067 12.65L16.9734 14.8867L15.1834 13.1ZM25.9034 13.1L32.7534 6.25003C33.367 6.82796 33.9416 7.44598 34.4734 8.10003L27.69 14.8834L25.9034 13.1ZM23 10.1934L29.4367 3.75669C30.3567 4.30174 31.2287 4.92398 32.0434 5.61669L25.2334 12.4267L23 10.1934ZM14.6667 1.86003C18.066 0.893671 21.6674 0.893671 25.0667 1.86003L19.8734 7.06669L14.6667 1.86003ZM11.1667 3.27003L13.6667 2.19336L19.2034 7.73669L17.4167 9.52336L11.1667 3.27003ZM7.33337 19.6234C7.24543 19.712 7.19609 19.8318 7.19609 19.9567C7.19609 20.0816 7.24543 20.2014 7.33337 20.29L11.4034 24.36L4.6867 31.0667C2.32488 27.8445 1.05154 23.9534 1.05154 19.9584C1.05154 15.9633 2.32488 12.0722 4.6867 8.85003L11.3867 15.5534L7.33337 19.6234ZM13.86 26.82L7.00003 33.6667C6.3866 33.0886 5.81202 32.4705 5.28003 31.8167L12.0567 25.0334L13.86 26.82ZM16.7634 29.7234L10.3067 36.1634C9.38676 35.6182 8.51474 34.996 7.70003 34.3034L14.5134 27.49L16.7634 29.7234ZM19.22 32.1834L13.6667 37.7267C12.8106 37.4273 11.9773 37.0664 11.1734 36.6467L17.4267 30.3934L19.22 32.1834ZM25.0934 38.0567C21.6919 39.0238 18.0882 39.0238 14.6867 38.0567L19.89 32.8534L25.0934 38.0567ZM28.6 36.65C27.796 37.0695 26.9627 37.4304 26.1067 37.73L20.5434 32.18L22.33 30.3934L28.6 36.65ZM32.0634 34.3167C31.2485 35.0091 30.3765 35.6313 29.4567 36.1767L23 29.7234L25.2334 27.49L32.0634 34.3167ZM34.4934 31.8367C33.9616 32.4907 33.387 33.1087 32.7734 33.6867L25.92 26.8367L27.7034 25.05L34.4934 31.8367Z" fill="white"/>
</g>
<defs>
<clipPath id="clip0">
<rect width="163.75" height="40" fill="white"/>
</clipPath>
</defs>
</svg>
