<svg width="136" height="16" viewBox="0 0 136 16" fill="none" xmlns="http://www.w3.org/2000/svg">
<path d="M5.84799 7.03759L5.66712 6.97744C3.25558 6.31579 2.1101 5.83459 2.1101 3.90977C2.1101 2.28571 3.07471 1.38346 4.7025 1.38346C4.7025 1.38346 8.13895 1.38346 9.10356 4.21053L9.16385 4.33083H10.249V0H9.16385L8.74183 1.56391C7.71693 0.601504 6.39058 0 4.88337 0C2.04981 0 0.0602885 1.80451 0.0602885 4.39098C0.0602885 7.2782 2.47183 8.1203 5.18481 8.78195C7.89779 9.44361 9.04328 9.98496 9.04328 11.9699C9.04328 13.7143 7.59635 14.5564 6.33029 14.5564C4.03933 14.5564 2.41154 13.6541 1.14548 11.7895L1.08519 11.6692H0V16H1.08519L1.5675 14.1353C2.89385 15.3985 4.34077 16 6.14943 16C9.04328 16 11.0931 14.015 11.0931 11.3684C11.0931 8.42105 8.68154 7.7594 5.84799 7.03759V7.03759ZM13.3238 3.30827H14.3487L14.409 3.00752C14.7707 1.26316 14.831 1.26316 16.0367 1.26316H18.81V14.6767H17.3028V15.9398H22.5479V14.6767H21.101V1.26316H23.814C25.08 1.26316 25.2006 1.26316 25.5623 3.00752L25.6226 3.30827H26.6475V0H13.3238V3.30827ZM38.1023 3.30827H39.1272L39.1875 3.00752C39.5493 1.26316 39.6095 1.26316 40.8153 1.26316H43.5886V14.6767H42.1417V15.9398H47.3868V14.6767H45.9398V1.26316H48.6528C49.9189 1.26316 50.0395 1.26316 50.4012 3.00752L50.4615 3.30827H51.4864V0H38.1023V3.30827ZM29.7222 0V1.26316H31.2294V14.7368H29.7222V16H34.9673V14.7368H33.5204V1.26316H34.9673V0H29.7222ZM79.822 0V1.26316H81.3292V7.81955H73.8534V1.26316H75.3003V0H70.0552V1.26316H71.6227V14.7368H70.1155V16H75.3606V14.7368H73.8534V9.08271H81.3292V14.7368H79.822V16H85.0671V14.7368H83.6202V1.26316H85.0671V0H79.822ZM112.378 0V1.26316H113.885V14.7368H112.378V16H117.623V14.7368H116.176V1.26316H117.623V0H112.378ZM130.163 0V1.26316H131.369L127.993 6.13534L124.737 1.26316H125.943V0H120.698V1.26316H122.205L126.787 8.06015L122.265 14.7368H120.637V16H125.882V14.7368H124.194L127.691 9.50376L131.188 14.7368H129.861V16H135.107V14.7368H133.66L128.957 7.57895L133.298 1.26316H135.408V0H130.163ZM97.3056 1.26316H98.8732V14.6767H97.3056V15.9398H102.551V14.6767H101.164V9.02256H103.576C104.48 9.02256 104.54 9.14286 104.842 10.0451L104.902 10.1654V10.2857H105.927V6.31579H104.902V6.43609C104.902 6.55639 104.842 6.61654 104.781 6.67669C104.48 7.3985 104.359 7.7594 103.515 7.7594H101.104V1.26316H106.59C107.615 1.26316 107.856 1.56391 108.459 3.06767V3.18797H109.665V0H97.2454L97.3056 1.26316ZM65.2322 9.68421C64.7499 12.812 63.0618 14.5564 60.4694 14.5564C57.3947 14.5564 55.5257 11.9699 55.5257 7.8797C55.5257 3.96992 57.3947 1.44361 60.2885 1.44361C63.0618 1.44361 64.5087 3.18797 65.1719 4.69173L65.2322 4.81203H66.3174V0H65.1116L64.6896 1.68421C63.5441 0.541353 62.0972 0 60.3488 0C56.2492 0 53.1142 3.42857 53.1142 8C53.1142 10.3459 53.8376 12.3308 55.1037 13.7744C56.3698 15.218 58.1784 15.9398 60.1679 15.9398C63.7852 15.9398 66.0762 13.7143 66.5585 9.68421V9.50376H65.1719V9.68421H65.2322Z" fill="#2F3237"/>
</svg>
